<svg width="32" height="32" viewBox="0 0 32 32" fill="none" xmlns="http://www.w3.org/2000/svg">
<g clip-path="url(#clip0_1009_195)">
<rect width="32" height="32" fill="white"/>
<path fill-rule="evenodd" clip-rule="evenodd" d="M26.6667 0C28.0812 0 29.4377 0.561903 30.4379 1.5621C31.4381 2.56229 32 3.91885 32 5.33333V26.6667C32 28.0812 31.4381 29.4377 30.4379 30.4379C29.4377 31.4381 28.0812 32 26.6667 32H5.33333C3.91885 32 2.56229 31.4381 1.5621 30.4379C0.561903 29.4377 0 28.0812 0 26.6667V5.33333C0 3.91885 0.561903 2.56229 1.5621 1.5621C2.56229 0.561903 3.91885 0 5.33333 0H26.6667ZM8.88889 12.4444C8.41739 12.4444 7.96521 12.6317 7.63181 12.9651C7.29841 13.2985 7.11111 13.7507 7.11111 14.2222V23.1111C7.11111 23.5826 7.29841 24.0348 7.63181 24.3682C7.96521 24.7016 8.41739 24.8889 8.88889 24.8889C9.36038 24.8889 9.81257 24.7016 10.146 24.3682C10.4794 24.0348 10.6667 23.5826 10.6667 23.1111V14.2222C10.6667 13.7507 10.4794 13.2985 10.146 12.9651C9.81257 12.6317 9.36038 12.4444 8.88889 12.4444ZM14.2222 10.6667C13.7507 10.6667 13.2985 10.854 12.9651 11.1874C12.6317 11.5208 12.4444 11.9729 12.4444 12.4444V23.1111C12.4444 23.5826 12.6317 24.0348 12.9651 24.3682C13.2985 24.7016 13.7507 24.8889 14.2222 24.8889C14.6937 24.8889 15.1459 24.7016 15.4793 24.3682C15.8127 24.0348 16 23.5826 16 23.1111V16.6044C16.6936 15.85 17.5371 15.2487 18.4764 14.8391C19.0684 14.5867 19.9591 14.4836 20.5778 14.6791C20.783 14.7312 20.9658 14.8485 21.0987 15.0133C21.1911 15.1378 21.3333 15.4151 21.3333 16V23.1111C21.3333 23.5826 21.5206 24.0348 21.854 24.3682C22.1874 24.7016 22.6396 24.8889 23.1111 24.8889C23.5826 24.8889 24.0348 24.7016 24.3682 24.3682C24.7016 24.0348 24.8889 23.5826 24.8889 23.1111V16C24.8889 14.8089 24.5867 13.7493 23.9573 12.8996C23.3782 12.129 22.5677 11.564 21.6444 11.2871C20.0409 10.784 18.2649 11.0631 17.0791 11.5716C16.6992 11.7342 16.3293 11.9194 15.9716 12.1262C15.897 11.7166 15.6811 11.3461 15.3614 11.0794C15.0417 10.8127 14.6386 10.6666 14.2222 10.6667ZM8.88889 7.11111C8.41739 7.11111 7.96521 7.29841 7.63181 7.63181C7.29841 7.96521 7.11111 8.41739 7.11111 8.88889C7.11111 9.36038 7.29841 9.81257 7.63181 10.146C7.96521 10.4794 8.41739 10.6667 8.88889 10.6667C9.36038 10.6667 9.81257 10.4794 10.146 10.146C10.4794 9.81257 10.6667 9.36038 10.6667 8.88889C10.6667 8.41739 10.4794 7.96521 10.146 7.63181C9.81257 7.29841 9.36038 7.11111 8.88889 7.11111Z" fill="#4B3542"/>
</g>
<defs>
<clipPath id="clip0_1009_195">
<rect width="32" height="32" fill="white"/>
</clipPath>
</defs>
</svg>
