<svg width="24" height="24" viewBox="0 0 24 24" fill="none" xmlns="http://www.w3.org/2000/svg">
<path d="M8.36352 9.76978C8.36352 8.42578 7.27344 7.33594 5.9292 7.33594C4.58496 7.33594 3.49536 8.42578 3.49536 9.76978C3.49536 11.1147 4.58472 12.2041 5.9292 12.2041C7.27368 12.2041 8.36352 11.1147 8.36352 9.76978ZM18.0703 7.81138C16.7263 7.81138 15.6365 8.90122 15.6365 10.2452C15.6365 11.5902 16.7263 12.6791 18.0703 12.6791C19.4146 12.6791 20.5044 11.5902 20.5044 10.2452C20.5044 8.90122 19.4148 7.81138 18.0703 7.81138ZM15.8597 12.9546C15.6905 12.746 15.451 12.5046 15.1759 12.2514C14.442 11.3003 13.2941 10.6849 12 10.6849C10.8482 10.6849 9.81288 11.1726 9.08112 11.9497C8.66544 12.3114 8.29584 12.6644 8.06064 12.9548L7.9032 13.1471C7.1688 14.0425 6.25464 15.1566 6.26136 17.0471C6.26784 18.8027 7.69752 20.2319 9.44808 20.2319C9.93388 20.2329 10.4134 20.1217 10.8491 19.9069C11.2849 19.6922 11.6651 19.3796 11.9602 18.9937C12.2553 19.3798 12.6356 19.6924 13.0715 19.9072C13.5074 20.122 13.987 20.2331 14.473 20.2319C16.2228 20.2319 17.6522 18.8029 17.659 17.0471C17.6657 15.1566 16.7513 14.0425 16.0171 13.1471L15.8597 12.9546Z" fill="#4B3542"/>
<path d="M12.1687 9.13255C13.6499 9.13255 14.8507 7.93178 14.8507 6.45055C14.8507 4.96933 13.6499 3.76855 12.1687 3.76855C10.6875 3.76855 9.48669 4.96933 9.48669 6.45055C9.48669 7.93178 10.6875 9.13255 12.1687 9.13255Z" fill="#4B3542"/>
</svg>
