<svg width="32" height="32" viewBox="0 0 32 32" fill="none" xmlns="http://www.w3.org/2000/svg">
<path d="M11.1513 13.0264C11.1513 11.2344 9.6979 9.78125 7.90558 9.78125C6.11326 9.78125 4.66046 11.2344 4.66046 13.0264C4.66046 14.8197 6.11294 16.2721 7.90558 16.2721C9.69822 16.2721 11.1513 14.8197 11.1513 13.0264ZM24.0937 10.4152C22.3017 10.4152 20.8486 11.8683 20.8486 13.6603C20.8486 15.4536 22.3017 16.9054 24.0937 16.9054C25.8861 16.9054 27.3392 15.4536 27.3392 13.6603C27.3392 11.8683 25.8864 10.4152 24.0937 10.4152ZM21.1462 17.2728C20.9206 16.9947 20.6013 16.6728 20.2345 16.3352C19.256 15.067 17.7254 14.2465 16 14.2465C14.4643 14.2465 13.0838 14.8968 12.1081 15.9329C11.5539 16.4152 11.0611 16.8859 10.7475 17.2731L10.5376 17.5294C9.55838 18.7233 8.3395 20.2088 8.34846 22.7294C8.3571 25.0702 10.2633 26.9758 12.5974 26.9758C13.2452 26.9772 13.8845 26.8289 14.4655 26.5426C15.0465 26.2562 15.5534 25.8395 15.9469 25.3249C16.3403 25.8397 16.8475 26.2565 17.4286 26.5429C18.0098 26.8293 18.6494 26.9774 19.2973 26.9758C21.6304 26.9758 23.5363 25.0705 23.5453 22.7294C23.5542 20.2088 22.335 18.7233 21.3561 17.5294L21.1462 17.2728Z" fill="#4B3542"/>
<path d="M16.225 12.1764C18.2 12.1764 19.801 10.5754 19.801 8.60041C19.801 6.62544 18.2 5.02441 16.225 5.02441C14.25 5.02441 12.649 6.62544 12.649 8.60041C12.649 10.5754 14.25 12.1764 16.225 12.1764Z" fill="#4B3542"/>
</svg>
