<svg width="24" height="24" viewBox="0 0 24 24" fill="none" xmlns="http://www.w3.org/2000/svg">
<path d="M8.36328 9.76978C8.36328 8.42578 7.2732 7.33594 5.92896 7.33594C4.58472 7.33594 3.49512 8.42578 3.49512 9.76978C3.49512 11.1147 4.58448 12.2041 5.92896 12.2041C7.27344 12.2041 8.36328 11.1147 8.36328 9.76978ZM18.0701 7.81138C16.7261 7.81138 15.6362 8.90122 15.6362 10.2452C15.6362 11.5902 16.7261 12.6791 18.0701 12.6791C19.4143 12.6791 20.5042 11.5902 20.5042 10.2452C20.5042 8.90122 19.4146 7.81138 18.0701 7.81138ZM15.8594 12.9546C15.6902 12.746 15.4507 12.5046 15.1757 12.2514C14.4418 11.3003 13.2938 10.6849 11.9998 10.6849C10.848 10.6849 9.81264 11.1726 9.08088 11.9497C8.6652 12.3114 8.2956 12.6644 8.0604 12.9548L7.90296 13.1471C7.16856 14.0425 6.2544 15.1566 6.26112 17.0471C6.2676 18.8027 7.69728 20.2319 9.44784 20.2319C9.93364 20.2329 10.4131 20.1217 10.8489 19.9069C11.2846 19.6922 11.6649 19.3796 11.9599 18.9937C12.255 19.3798 12.6354 19.6924 13.0713 19.9072C13.5071 20.122 13.9868 20.2331 14.4727 20.2319C16.2226 20.2319 17.652 18.8029 17.6587 17.0471C17.6654 15.1566 16.751 14.0425 16.0169 13.1471L15.8594 12.9546Z" fill="#4B3542"/>
<path d="M12.1688 9.13255C13.65 9.13255 14.8508 7.93178 14.8508 6.45055C14.8508 4.96933 13.65 3.76855 12.1688 3.76855C10.6876 3.76855 9.48682 4.96933 9.48682 6.45055C9.48682 7.93178 10.6876 9.13255 12.1688 9.13255Z" fill="#4B3542"/>
</svg>
