<svg width="197" height="82" viewBox="0 0 197 82" fill="none" xmlns="http://www.w3.org/2000/svg">
<path d="M2.57345 2.5625C4.28984 0.853416 6.86328 0 10.2938 0C13.7243 0 16.2978 0.853416 18.0141 2.5625C19.7305 4.27158 22.304 8.54092 25.7345 15.375C29.165 22.2091 31.7565 26.4784 33.5068 28.1875C35.2572 29.8966 37.8125 30.75 41.1752 30.75C44.6057 30.75 47.1791 29.8966 48.8955 28.1875C50.6119 26.4784 53.1854 22.2091 56.6159 15.375C60.0464 8.54092 62.6198 4.27158 64.3362 2.5625C66.0526 0.853416 68.6261 0 72.0566 0C75.4871 0 78.0605 0.853416 79.7769 2.5625C81.4933 4.27158 82.3504 6.83408 82.3504 10.25V71.75C82.3504 75.1659 81.4933 77.7284 79.7769 79.4375C78.0605 81.1466 75.4871 82 72.0566 82C68.6261 82 66.0526 81.1466 64.3362 79.4375C62.6198 77.7284 61.7628 75.1659 61.7628 71.75V56.375C61.7628 52.9591 60.0464 51.25 56.6159 51.25C53.1854 51.25 51.469 52.9591 51.469 56.375V71.75C51.469 75.1659 50.6119 77.7284 48.8955 79.4375C47.1791 81.1466 44.6057 82 41.1752 82C37.7447 82 35.1712 81.1466 33.4548 79.4375C31.7384 77.7284 30.8814 75.1659 30.8814 71.75V56.375C30.8814 52.9591 29.165 51.25 25.7345 51.25C22.304 51.25 20.5876 52.9591 20.5876 56.375V71.75C20.5876 75.1659 19.7305 77.7284 18.0141 79.4375C16.2978 81.1466 13.7243 82 10.2938 82C6.86328 82 4.28984 81.1466 2.57345 79.4375C0.857062 77.7284 0 75.1659 0 71.75V10.25C0 6.83408 0.857062 4.27158 2.57345 2.5625Z" fill="#D0BEC4"/>
<path d="M87.0902 17.348V11.6105C87.0902 9.69878 87.5651 8.26441 88.5149 7.30742C89.4647 6.35042 90.8916 5.87305 92.7911 5.87305C94.6907 5.87305 96.1176 6.35042 97.0674 7.30742C98.0172 8.26441 98.4921 9.69653 98.4921 11.6105V23.0832C98.4921 24.995 98.967 26.4293 99.9167 27.3863C100.867 28.3433 102.293 28.8207 104.193 28.8207C106.093 28.8207 107.52 28.3433 108.469 27.3863C109.419 26.4293 109.894 24.9972 109.894 23.0832V11.6105C109.894 9.69878 110.369 8.26441 111.319 7.30742C112.268 6.35042 113.695 5.87305 115.595 5.87305C117.494 5.87305 118.921 6.35042 119.871 7.30742C120.821 8.26441 121.296 9.69653 121.296 11.6105V34.5559C121.296 36.4677 120.821 37.902 119.871 38.859C118.921 39.816 117.494 40.2934 115.595 40.2934H104.191C98.4898 40.2934 94.2136 38.3817 91.362 34.5582C88.5104 30.7347 87.0902 24.9972 87.0902 17.348Z" fill="#D0BEC4"/>
<path d="M159.936 17.348C159.936 19.2597 159.461 20.6941 158.511 21.6511C157.562 22.6081 156.135 23.0855 154.235 23.0855C152.336 23.0855 150.909 22.6081 149.959 21.6511C149.009 20.6941 148.059 19.7394 147.107 18.7824C146.155 17.8254 144.731 17.348 142.831 17.348C140.931 17.348 139.504 17.8254 138.555 18.7824C137.605 19.7394 137.13 21.1715 137.13 23.0855V34.5582C137.13 36.4699 136.655 37.9043 135.705 38.8613C134.756 39.8183 133.329 40.2957 131.429 40.2957C129.53 40.2957 128.103 39.8183 127.153 38.8613C126.203 37.9043 125.728 36.4722 125.728 34.5582V11.6105C125.728 9.69878 126.203 8.26441 127.153 7.30742C128.103 6.35042 129.53 5.87305 131.429 5.87305H142.833C148.534 5.87305 152.81 7.30742 155.662 10.1762C158.511 13.0449 159.936 15.4363 159.936 17.348Z" fill="#D0BEC4"/>
<path d="M196.998 17.348C196.998 19.2597 196.523 20.6941 195.573 21.6511C194.623 22.6081 193.196 23.0855 191.297 23.0855C189.397 23.0855 187.97 22.6081 187.02 21.6511C186.071 20.6941 185.121 19.7394 184.169 18.7824C183.219 17.8254 181.792 17.348 179.893 17.348C177.993 17.348 176.566 17.8254 175.616 18.7824C174.667 19.7394 174.192 21.1715 174.192 23.0855V34.5582C174.192 36.4699 173.717 37.9043 172.767 38.8613C171.817 39.8183 170.39 40.2957 168.491 40.2957C166.591 40.2957 165.164 39.8183 164.214 38.8613C163.265 37.9043 162.79 36.4722 162.79 34.5582V11.6105C162.79 9.69878 163.265 8.26441 164.214 7.30742C165.164 6.35042 166.591 5.87305 168.491 5.87305H179.895C185.596 5.87305 189.872 7.30742 192.724 10.1762C195.575 13.0449 196.998 15.4363 196.998 17.348Z" fill="#D0BEC4"/>
<path d="M90.0345 49.1584C91.9974 47.2038 94.9417 46.2266 98.8675 46.2266C100.177 46.2266 101.158 46.5531 101.812 47.2038C102.465 47.8546 102.793 48.8318 102.793 50.1356C102.793 51.4394 102.465 52.4166 101.812 53.0674C101.158 53.7182 100.177 54.0447 98.8675 54.0447C97.5581 54.0447 96.5767 54.3712 95.9232 55.0219C95.2696 55.6727 94.9417 56.6499 94.9417 57.9537V59.9082C94.9417 61.212 95.5953 61.8628 96.9046 61.8628H98.8675C100.177 61.8628 101.158 62.1893 101.812 62.84C102.465 63.4908 102.793 64.468 102.793 65.7718C102.793 67.0756 102.465 68.0528 101.812 68.7036C101.158 69.3544 100.177 69.6809 98.8675 69.6809H96.9046C95.5953 69.6809 94.9417 70.3316 94.9417 71.6354V73.5899C94.9417 74.8937 94.6138 75.8709 93.9603 76.5217C93.3067 77.1725 92.3253 77.499 91.016 77.499C89.7066 77.499 88.7252 77.1725 88.0716 76.5217C87.4181 75.8709 87.0902 74.8937 87.0902 73.5899V56.0014C87.0902 53.3939 88.0717 51.1129 90.0345 49.1584Z" fill="#D0BEC4"/>
<path d="M122.418 69.6782H124.381C125.69 69.6782 126.671 70.0047 127.325 70.6555C127.978 71.3062 128.306 72.2835 128.306 73.5872C128.306 74.891 127.978 75.8683 127.325 76.519C126.671 77.1698 125.69 77.4963 124.381 77.4963H116.529C112.603 77.4963 109.659 76.1925 107.696 73.5872C105.733 70.982 104.752 68.3767 104.752 65.7691C104.752 63.1639 105.733 60.5586 107.696 57.951C109.659 55.3458 112.603 54.042 116.529 54.042C120.455 54.042 123.399 55.0193 125.362 56.9738C127.325 58.9283 128.306 61.2071 128.306 63.8146C128.306 66.4222 126.343 68.3767 122.418 69.6782ZM116.549 61.8623C113.947 61.8759 112.635 63.1774 112.615 65.7714C112.594 68.3632 113.897 68.3587 116.52 65.7511C119.143 63.1458 119.155 61.8488 116.549 61.8623Z" fill="#D0BEC4"/>
<path d="M149.895 65.7721C148.586 65.7721 147.604 65.4456 146.951 64.7948C146.297 64.1441 145.642 63.491 144.988 62.8403C144.335 62.1895 143.353 61.863 142.044 61.863C140.734 61.863 139.753 62.1895 139.099 62.8403C138.446 63.491 138.118 64.4683 138.118 65.7721C138.118 67.0758 138.446 68.0531 139.099 68.7039C139.753 69.3546 140.734 69.6811 142.044 69.6811H149.895C151.205 69.6811 152.186 70.0076 152.84 70.6584C153.493 71.3091 153.821 72.2864 153.821 73.5902C153.821 74.8939 153.493 75.8712 152.84 76.522C152.186 77.1727 151.205 77.4992 149.895 77.4992H142.044C138.118 77.4992 135.174 76.522 133.211 74.5674C131.248 72.6129 130.266 69.6811 130.266 65.7721C130.266 61.863 131.248 58.9312 133.211 56.9767C135.174 55.0222 138.118 54.0449 142.044 54.0449C145.969 54.0449 148.914 55.0222 150.877 56.9767C152.84 58.9312 153.821 60.5593 153.821 61.863C153.821 63.1668 153.493 64.1441 152.84 64.7948C152.186 65.4456 151.205 65.7721 149.895 65.7721Z" fill="#D0BEC4"/>
<path d="M155.784 67.7241V50.1356C155.784 48.8318 156.112 47.8546 156.765 47.2038C157.419 46.5531 158.4 46.2266 159.71 46.2266C161.019 46.2266 162.001 46.5531 162.654 47.2038C163.308 47.8546 163.636 48.8318 163.636 50.1356V52.0901C163.636 53.3939 164.289 54.0447 165.598 54.0447H167.561C168.871 54.0447 169.852 54.3712 170.506 55.0219C171.159 55.6727 171.487 56.6499 171.487 57.9537C171.487 59.2575 171.159 60.2347 170.506 60.8855C169.852 61.5363 168.871 61.8628 167.561 61.8628H165.598C164.289 61.8628 163.636 62.5135 163.636 63.8173V65.7718C163.636 67.0756 163.963 68.0528 164.617 68.7036C165.271 69.3544 166.252 69.6809 167.561 69.6809C168.871 69.6809 169.852 70.0074 170.506 70.6581C171.159 71.3089 171.487 72.2862 171.487 73.5899C171.487 74.8937 171.159 75.8709 170.506 76.5217C169.852 77.1725 168.871 77.499 167.561 77.499C163.636 77.499 160.691 76.5217 158.728 74.5672C156.765 72.6127 155.784 70.3316 155.784 67.7241Z" fill="#D0BEC4"/>
<path d="M197 65.7721C197 69.6811 196.019 72.6129 194.056 74.5674C192.093 76.522 189.149 77.4992 185.223 77.4992C181.297 77.4992 178.353 76.522 176.39 74.5674C174.427 72.6129 173.446 69.6811 173.446 65.7721C173.446 61.863 174.427 58.9312 176.39 56.9767C178.353 55.0222 181.297 54.0449 185.223 54.0449C189.149 54.0449 192.093 55.0222 194.056 56.9767C196.019 58.9312 197 61.863 197 65.7721ZM185.243 61.863C182.64 61.8765 181.329 63.1781 181.308 65.7721C181.288 68.3638 182.591 69.6676 185.214 69.6811C187.837 69.6946 189.149 68.3909 189.149 65.7721C189.149 63.1533 187.846 61.8495 185.243 61.863Z" fill="#D0BEC4"/>
</svg>
